<svg width="201" height="81" viewBox="0 0 201 81" fill="none" xmlns="http://www.w3.org/2000/svg">
<path d="M0.0152969 18.2555H51.8771V64.5548H0.0152969V18.2555Z" fill="white"/>
<path d="M32.7064 18.2555L51.8771 64.5548V18.2555H32.7064ZM0.0152969 18.2555V64.5548L19.2007 18.2555H0.0152969ZM17.5711 55.2424H26.5101L30.163 64.5548H38.1677L25.9547 35.318L17.5711 55.2424Z" fill="#E20025"/>
<path d="M79.2549 18.1338L68.8764 64.556H75.1581L77.8893 51.7456H87.4484L90.1113 64.556H96.4613L86.6974 18.1338H79.2549ZM78.6404 46.5786L80.8253 35.4902C81.4398 32.5284 82.1226 28.2579 82.6006 24.884H82.8737C83.3517 28.1902 83.9662 32.3217 84.5807 35.4902L86.6974 46.5786H78.6404ZM120.438 16.894H114.019V34.3192H113.883C112.722 31.7707 110.605 30.5309 107.943 30.5309C102.686 30.5309 97.7006 36.1078 97.7006 47.9561C97.7006 58.3569 101.456 65.1059 107.601 65.1059C110.945 65.1059 113.472 62.8329 114.565 60.4898H114.771L115.179 64.5537H120.709C120.572 62.2118 120.435 58.4935 120.435 55.945L120.438 16.894ZM114.019 52.7788C114.019 53.5353 113.95 54.363 113.815 54.9118C112.722 58.9056 110.809 59.6656 109.376 59.6656C105.962 59.6656 104.187 54.8452 104.187 47.9573C104.187 41.7582 105.552 36.1101 109.58 36.1101C111.902 36.1101 113.609 38.7275 113.95 41.7582C114.019 42.4481 114.019 43.2058 114.019 43.8257V52.7788ZM136.066 30.5309C129.99 30.5309 124.323 35.6968 124.323 47.8873C124.323 59.3912 129.102 65.107 135.727 65.107H135.796C140.848 65.107 147.335 61.0432 147.335 47.7506C147.332 36.4556 142.621 30.5309 136.066 30.5309ZM135.93 60.0088H135.861C131.697 60.0088 130.74 53.3964 130.74 47.8184C130.74 42.7902 131.56 35.6268 135.792 35.6268C139.888 35.6268 140.776 42.7902 140.776 47.8184C140.778 52.9166 139.889 60.0088 135.93 60.0088ZM164.718 30.5309C161.783 30.5309 159.462 31.8396 157.755 34.8691H157.618V16.894H151.2V55.9473C151.2 58.4958 151.063 62.2853 150.927 64.556H156.457L156.799 60.3555H157.071C158.506 63.3173 160.348 65.1093 163.626 65.1093C169.088 65.1093 173.937 59.2523 173.937 47.2696C173.935 37.0055 170.384 30.5309 164.718 30.5309ZM162.192 59.6656C160.893 59.6656 158.914 58.8379 157.89 54.7752C157.685 54.2253 157.618 53.4653 157.618 52.7076V43.3424C157.618 42.6513 157.688 41.757 157.824 41.0694C158.302 38.6586 160.009 36.1101 162.124 36.1101C165.947 36.1101 167.452 41.276 167.452 47.6818C167.449 54.5685 166.014 59.6656 162.192 59.6656ZM189.004 30.5309C182.107 30.5309 177.125 37.281 177.125 48.2305C177.125 58.5624 181.496 64.8992 189.825 64.8992C192.759 64.8992 195.765 64.3493 197.745 63.3162L196.788 58.6324C195.353 59.3223 193.374 59.8711 191.054 59.8711C187.161 59.8711 183.475 57.737 183.405 49.1282L198.973 49.1983C199.042 48.3028 199.108 47.2685 199.108 45.6165C199.108 37.2122 195.9 30.5309 189.004 30.5309ZM183.473 44.5122C183.679 40.3106 185.18 35.4202 188.525 35.4202C191.051 35.4202 193.101 38.5886 193.031 44.5122H183.473ZM198.827 31.9865V31.9739C199.004 31.9211 199.148 31.7879 199.148 31.5687C199.148 31.4091 199.096 31.2977 198.997 31.2243C198.899 31.1519 198.736 31.0991 198.486 31.0991C198.289 31.0991 198.158 31.1198 198.02 31.1382V32.8005H198.282V32.0853H198.465C198.676 32.0853 198.779 32.1645 198.82 32.3768C198.852 32.595 198.892 32.7476 198.934 32.8005H199.207C199.183 32.7476 199.141 32.6478 199.103 32.3906C199.07 32.145 198.972 32.0129 198.827 31.9865ZM198.473 31.8798H198.283V31.3173C198.329 31.3115 198.388 31.3046 198.473 31.3046C198.769 31.3046 198.874 31.4493 198.874 31.5951C198.873 31.8017 198.69 31.8798 198.473 31.8798ZM198.565 30.4436H198.559C197.752 30.4436 197.095 31.106 197.095 31.9337C197.095 32.7741 197.752 33.4295 198.559 33.4295C199.372 33.4295 200.015 32.7752 200.015 31.9337C200.015 31.106 199.372 30.4436 198.565 30.4436ZM198.565 33.1977C197.909 33.1977 197.377 32.6432 197.377 31.9337C197.377 31.2392 197.909 30.6755 198.559 30.6755H198.565C199.221 30.6755 199.746 31.238 199.746 31.9406C199.746 32.6409 199.221 33.2045 198.565 33.1977ZM54.4057 18.2555H54.3988C53.5909 18.2555 52.9354 18.9179 52.9354 19.7444C52.9354 20.5848 53.5909 21.2403 54.3988 21.2403C55.2125 21.2403 55.8543 20.5859 55.8543 19.7444C55.8555 18.9179 55.2125 18.2555 54.4057 18.2555ZM54.4057 21.0095C53.7491 21.0095 53.2187 20.4539 53.2187 19.7444C53.2187 19.0511 53.7502 18.4862 54.4 18.4862H54.4068C55.0634 18.4862 55.588 19.0488 55.588 19.7502C55.5858 20.4539 55.0612 21.0164 54.4057 21.0095ZM54.6686 19.7984V19.7846C54.8449 19.7318 54.9895 19.5986 54.9895 19.3805C54.9895 19.221 54.9371 19.1085 54.8392 19.035C54.7414 18.9627 54.5764 18.911 54.3272 18.911C54.1314 18.911 53.9994 18.9305 53.8617 18.9512V20.6112H54.1246V19.8971H54.3078C54.5183 19.8971 54.6219 19.9763 54.6629 20.1887C54.6947 20.4068 54.7346 20.5584 54.7744 20.6123H55.0509C55.0247 20.5595 54.9849 20.4596 54.9451 20.2025C54.9109 19.9568 54.8131 19.8248 54.6686 19.7984ZM54.3135 19.6916H54.1235V19.1291C54.169 19.1234 54.2281 19.1153 54.3135 19.1153C54.6082 19.1153 54.7141 19.2611 54.7141 19.4069C54.7141 19.6124 54.5297 19.6916 54.3135 19.6916Z" fill="black"/>
</svg>
