<svg width="200" height="81" viewBox="0 0 200 81" fill="none" xmlns="http://www.w3.org/2000/svg">
<g clip-path="url(#clip0_0_20)">
<path d="M32.655 57.4111C23.3563 57.4111 15.8203 49.8404 15.8203 40.5021C15.8203 31.1633 23.3563 23.5999 32.655 23.5999C35.9325 23.5999 38.9925 24.5384 41.5775 26.1653L32.655 40.5021L49.4525 30.7636C47.6275 27.8441 45.01 25.3284 41.845 23.4194C37.8175 20.9983 32.215 19.5 26.02 19.5C17.183 19.5 9.43026 22.7243 5.10675 27.5529C1.90575 31.1223 0 35.6148 0 40.5018C0 45.3924 1.90575 49.8881 5.10675 53.4601C9.44151 58.2946 17.0788 61.5001 25.77 61.5001C34.46 61.5001 42.095 58.2921 46.4325 53.4601C46.67 53.194 46.9 52.9254 47.1175 52.6468L46.4625 50.1818C43.415 54.5495 38.3675 57.4111 32.655 57.4111Z" fill="#BF1920"/>
<path d="M88.3451 60.4835L81.2951 34.0765C80.1626 29.8093 76.2925 26.6728 71.685 26.6728C70.49 26.6728 69.345 26.8872 68.2825 27.2752L53.105 32.8167H68.715L71.3825 42.8192C68.795 40.5831 65.425 39.2226 61.735 39.2226C54.4075 39.2226 48.475 44.1528 48.475 50.2345C48.475 56.3166 54.4075 61.2541 61.735 61.2541C67.01 61.2541 71.675 58.6611 74.5525 54.6775L76.1 60.4835H88.3451ZM66.84 56.3819C63.46 56.3819 60.72 53.6332 60.72 50.2345C60.72 46.8407 63.46 44.0896 66.84 44.0896C70.22 44.0896 72.9626 46.8407 72.9626 50.2345C72.9626 53.6332 70.22 56.3819 66.84 56.3819Z" fill="#BF1920"/>
<path d="M117.09 26.6773C116.165 26.6773 115.29 26.8827 114.51 27.2504L104.765 31.8104C104.283 28.8976 101.763 26.6773 98.7226 26.6773C97.8026 26.6773 96.9251 26.8827 96.1351 27.2504L84.2375 32.8167H92.6026V60.4837H104.848V35.8947C104.848 34.198 106.215 32.8169 107.91 32.8169C109.595 32.8169 110.973 34.198 110.973 35.8947V60.4837H123.213V32.8167C123.213 29.4237 120.47 26.6773 117.09 26.6773Z" fill="#BF1920"/>
<path d="M193.88 26.6773C192.953 26.6773 192.073 26.8827 191.28 27.2504L181.545 31.8104C181.065 28.8976 178.545 26.6773 175.505 26.6773C174.585 26.6773 173.708 26.8827 172.915 27.2504L161.023 32.8167H169.385V60.4837H181.628V35.8947C181.628 34.198 182.998 32.8169 184.693 32.8169C186.383 32.8169 187.75 34.198 187.75 35.8947V60.4837H200V32.8167C200 29.4237 197.255 26.6773 193.88 26.6773Z" fill="#BF1920"/>
<path d="M163.003 44.0893C163.003 53.706 155.24 61.5001 145.665 61.5001C136.083 61.5001 128.315 53.706 128.315 44.0893C128.315 34.4752 136.083 26.6773 145.665 26.6773C155.24 26.6773 163.003 34.4754 163.003 44.0893ZM146.383 31.9617C145.838 29.9129 143.74 28.6968 141.7 29.2475C139.663 29.796 138.445 31.9032 138.993 33.9518L144.94 56.2162C145.49 58.267 147.583 59.4819 149.623 58.9397C151.663 58.385 152.875 56.279 152.328 54.2307L146.383 31.9617Z" fill="#BF1920"/>
</g>
<defs>
<clipPath id="clip0_0_20">
<rect width="200" height="80" fill="white" transform="translate(0 0.5)"/>
</clipPath>
</defs>
</svg>
