<svg width="200" height="80" viewBox="0 0 200 80" fill="none" xmlns="http://www.w3.org/2000/svg">
<path d="M85.1103 40.3594C85.1103 49.6592 77.7647 56.5122 68.75 56.5122C59.7353 56.5122 52.3897 49.6592 52.3897 40.3594C52.3897 30.9939 59.7353 24.2065 68.75 24.2065C77.7647 24.2065 85.1103 30.9939 85.1103 40.3594ZM77.9485 40.3594C77.9485 34.5478 73.6912 30.5715 68.75 30.5715C63.8088 30.5715 59.5515 34.5478 59.5515 40.3594C59.5515 46.1126 63.8088 50.1472 68.75 50.1472C73.6912 50.1472 77.9485 46.1053 77.9485 40.3594Z" fill="#EA4335"/>
<path d="M120.404 40.3594C120.404 49.6592 113.059 56.5122 104.044 56.5122C95.0294 56.5122 87.6838 49.6592 87.6838 40.3594C87.6838 31.0012 95.0294 24.2065 104.044 24.2065C113.059 24.2065 120.404 30.9939 120.404 40.3594ZM113.243 40.3594C113.243 34.5478 108.985 30.5715 104.044 30.5715C99.103 30.5715 94.8456 34.5478 94.8456 40.3594C94.8456 46.1126 99.103 50.1472 104.044 50.1472C108.985 50.1472 113.243 46.1053 113.243 40.3594Z" fill="#FBBC05"/>
<path d="M154.228 25.1824V54.1817C154.228 66.1107 147.125 70.9827 138.728 70.9827C130.824 70.9827 126.066 65.7465 124.272 61.4644L130.507 58.8936C131.618 61.5226 134.338 64.625 138.721 64.625C144.096 64.625 147.426 61.3405 147.426 55.1576V52.8345H147.176C145.574 54.7935 142.485 56.5049 138.588 56.5049C130.434 56.5049 122.963 49.4699 122.963 40.4176C122.963 31.2998 130.434 24.2065 138.588 24.2065C142.478 24.2065 145.566 25.9179 147.176 27.8187H147.426V25.1897H154.228V25.1824ZM147.934 40.4176C147.934 34.7299 144.103 30.5715 139.228 30.5715C134.287 30.5715 130.147 34.7299 130.147 40.4176C130.147 46.0471 134.287 50.1472 139.228 50.1472C144.103 50.1472 147.934 46.0471 147.934 40.4176Z" fill="#4285F4"/>
<path d="M165.441 8.18478V55.5217H158.456V8.18478H165.441Z" fill="#34A853"/>
<path d="M192.662 45.6756L198.221 49.3461C196.426 51.9751 192.103 56.5049 184.632 56.5049C175.368 56.5049 168.449 49.4116 168.449 40.3521C168.449 30.7463 175.426 24.1992 183.831 24.1992C192.294 24.1992 196.434 30.8701 197.787 34.475L198.529 36.3102L176.728 45.2533C178.397 48.494 180.993 50.1472 184.632 50.1472C188.279 50.1472 190.809 48.3702 192.662 45.6756ZM175.551 39.8641L190.125 33.8705C189.324 31.8533 186.912 30.4477 184.074 30.4477C180.434 30.4477 175.368 33.6302 175.551 39.8641Z" fill="#EA4335"/>
<path d="M25.9485 36.1573V29.3044H49.2647C49.4926 30.4987 49.6103 31.9115 49.6103 33.4409C49.6103 38.5824 48.1912 44.9401 43.6176 49.4699C39.1691 54.0579 33.4853 56.5049 25.9559 56.5049C12 56.5049 0.264709 45.246 0.264709 31.4236C0.264709 17.6012 12 6.34229 25.9559 6.34229C33.6765 6.34229 39.1765 9.34272 43.3088 13.2535L38.4265 18.0891C35.4632 15.3363 31.4485 13.1952 25.9485 13.1952C15.7574 13.1952 7.78677 21.3299 7.78677 31.4236C7.78677 41.5173 15.7574 49.652 25.9485 49.652C32.5588 49.652 36.3235 47.0229 38.7353 44.6342C40.6912 42.6971 41.9779 39.9297 42.4853 36.15L25.9485 36.1573Z" fill="#4285F4"/>
</svg>
