<svg width="201" height="81" viewBox="0 0 201 81" fill="none" xmlns="http://www.w3.org/2000/svg">
<path d="M6.95992 47.256C6.95992 49.5544 7.46881 51.3211 8.13325 52.3887C9.00436 53.7871 10.3044 54.3804 11.6288 54.3804C13.3377 54.3804 14.8999 53.9591 17.9133 49.8235C20.3266 46.5083 23.171 41.8565 25.0844 38.9384L28.3244 33.9955C30.5755 30.5635 33.1799 26.7476 36.1688 24.1626C38.6066 22.0517 41.2377 20.8783 43.8866 20.8783C48.331 20.8783 52.5666 23.4347 55.8066 28.2298C59.3532 33.4816 61.0755 40.0964 61.0755 46.923C61.0755 50.9814 60.2688 53.9635 58.8977 56.3192C57.5732 58.5976 54.991 60.8739 50.6466 60.8739V54.3782C54.3666 54.3782 55.2932 50.9858 55.2932 47.1039C55.2932 41.572 53.9932 35.4314 51.131 31.0443C49.0999 27.9321 46.4666 26.0308 43.5688 26.0308C40.4355 26.0308 37.9155 28.3754 35.0821 32.5574C33.5755 34.7785 32.0288 37.4871 30.2933 40.542L28.3821 43.9034C24.5421 50.6616 23.5688 52.199 21.651 54.7399C18.2866 59.1866 15.4133 60.8739 11.631 60.8739C7.14436 60.8739 4.30659 58.9461 2.54881 56.0391C1.11103 53.6724 0.406586 50.5646 0.406586 47.0222L6.95992 47.256Z" fill="#0081FB"/>
<path d="M5.57324 28.6908C8.57769 24.0942 12.9132 20.8805 17.8866 20.8805C20.7666 20.8805 23.6288 21.7275 26.6177 24.1493C29.8888 26.7984 33.3732 31.159 37.7221 38.3495L39.2821 40.9301C43.0466 47.1546 45.1866 50.355 46.4399 51.8659C48.051 53.8047 49.1799 54.3826 50.6466 54.3826C54.3666 54.3826 55.2932 50.9903 55.2932 47.1083L61.0732 46.9274C61.0732 50.9858 60.2666 53.9679 58.8955 56.3236C57.571 58.6021 54.9888 60.8783 50.6443 60.8783C47.9443 60.8783 45.551 60.296 42.9066 57.819C40.8732 55.9177 38.4955 52.5408 36.6666 49.5036L31.2266 40.4824C28.4977 35.9541 25.9932 32.5794 24.5421 31.0509C22.9821 29.4077 20.9799 27.4226 17.7799 27.4226C15.191 27.4226 12.9932 29.2246 11.1532 31.9839L5.57324 28.6908Z" fill="url(#paint0_linear_1_3)"/>
<path d="M17.7799 27.4182C15.191 27.4182 12.9933 29.2202 11.1533 31.9795C8.55103 35.8769 6.95992 41.6801 6.95992 47.256C6.95992 49.5544 7.46881 51.3211 8.13325 52.3887L2.54659 56.0413C1.11103 53.6724 0.406586 50.5646 0.406586 47.0222C0.406586 40.5839 2.18659 33.872 5.57325 28.6886C8.5777 24.092 12.9133 20.8783 17.8866 20.8783L17.7799 27.4182Z" fill="url(#paint1_linear_1_3)"/>
<path d="M73.811 22.1444H81.391L94.2799 45.2864L107.171 22.1444H114.587V60.1725H108.402V31.0267L97.0977 51.2086H91.2955L79.9933 31.0267V60.1703H73.8088V22.1444H73.811ZM133.962 36.3225C129.527 36.3225 126.858 39.6354 126.218 43.738H141.269C140.958 39.5119 138.502 36.3225 133.962 36.3225ZM120.087 46.0738C120.087 37.443 125.707 31.1612 134.069 31.1612C142.295 31.1612 147.207 37.3636 147.207 46.5348V48.2199H126.218C126.962 52.682 129.947 55.6884 134.755 55.6884C138.593 55.6884 140.991 54.526 143.267 52.3997L146.551 56.392C143.455 59.2174 139.52 60.8452 134.535 60.8452C125.482 60.8496 120.087 54.2966 120.087 46.0738ZM154.704 36.8673H149.013V31.8428H154.704V23.5318H160.671V31.8428H169.318V36.8673H160.671V49.6051C160.671 53.9547 162.071 55.4987 165.515 55.4987C167.087 55.4987 167.989 55.3641 169.32 55.1458V60.1174C167.662 60.5828 166.08 60.7967 164.367 60.7967C157.927 60.7967 154.707 57.3029 154.707 50.3131L154.704 36.8673ZM194.44 41.7551C193.242 38.7531 190.569 36.5409 186.64 36.5409C181.535 36.5409 178.267 40.1361 178.267 45.9922C178.267 51.7027 181.275 55.4722 186.395 55.4722C190.42 55.4722 193.293 53.1474 194.44 50.2558V41.7551ZM200.407 60.1703H194.551V56.2045C192.913 58.5403 189.935 60.8496 185.111 60.8496C177.351 60.8496 172.167 54.4024 172.167 45.9922C172.167 37.5025 177.478 31.1612 185.44 31.1612C189.378 31.1612 192.464 32.7228 194.551 35.4821V31.8428H200.407V60.1703Z" fill="#192830"/>
<defs>
<linearGradient id="paint0_linear_1_3" x1="13.5577" y1="39.8408" x2="55.3281" y2="41.9663" gradientUnits="userSpaceOnUse">
<stop stop-color="#0064E1"/>
<stop offset="0.4" stop-color="#0064E1"/>
<stop offset="0.83" stop-color="#0073EE"/>
<stop offset="1" stop-color="#0082FB"/>
</linearGradient>
<linearGradient id="paint1_linear_1_3" x1="9.14614" y1="49.986" x2="9.14614" y2="34.7" gradientUnits="userSpaceOnUse">
<stop stop-color="#0082FB"/>
<stop offset="1" stop-color="#0064E0"/>
</linearGradient>
</defs>
</svg>
