<svg width="200" height="81" viewBox="0 0 200 81" fill="none" xmlns="http://www.w3.org/2000/svg">
<path d="M83.1753 27.1V52.9H78.7322V32.6542H78.673L70.7346 52.9H67.7725L59.6564 32.6542H59.5971V52.9H55.5095V27.1H61.9076L69.2535 46.2111H69.372L77.1327 27.1H83.1753ZM86.8483 29.0708C86.8483 28.3542 87.0853 27.7569 87.6185 27.2792C88.1516 26.8014 88.7441 26.5625 89.455 26.5625C90.2251 26.5625 90.8768 26.8014 91.3507 27.2792C91.8246 27.7569 92.1208 28.3542 92.1208 29.0708C92.1208 29.7875 91.8839 30.3847 91.3507 30.8625C90.8175 31.3403 90.2251 31.5792 89.455 31.5792C88.6848 31.5792 88.0924 31.3403 87.6185 30.8625C87.1445 30.325 86.8483 29.7278 86.8483 29.0708ZM91.6469 34.3861V52.9H87.3223V34.3861H91.6469ZM104.739 49.7347C105.391 49.7347 106.102 49.6153 106.872 49.2569C107.642 48.9583 108.353 48.5403 109.005 48.0625V52.1236C108.294 52.5417 107.524 52.8403 106.635 53.0194C105.746 53.1986 104.799 53.3181 103.732 53.3181C101.007 53.3181 98.8151 52.4819 97.1564 50.75C95.4384 49.0181 94.609 46.8083 94.609 44.1806C94.609 41.1944 95.4976 38.7458 97.2156 36.8347C98.9336 34.9236 101.363 33.9681 104.562 33.9681C105.391 33.9681 106.22 34.0875 106.991 34.2667C107.82 34.4458 108.472 34.7444 108.945 34.9833V39.1639C108.294 38.6861 107.583 38.2681 106.931 38.0292C106.22 37.7903 105.509 37.6111 104.799 37.6111C103.081 37.6111 101.718 38.1486 100.652 39.2833C99.5853 40.4181 99.1114 41.9111 99.1114 43.8222C99.1114 45.6736 99.6445 47.1667 100.652 48.1819C101.659 49.1972 103.021 49.7347 104.739 49.7347ZM121.268 34.0875C121.623 34.0875 121.919 34.0875 122.216 34.1472C122.512 34.2069 122.749 34.2667 122.927 34.3264V38.7458C122.69 38.5667 122.393 38.3875 121.919 38.2681C121.445 38.1486 120.972 38.0292 120.32 38.0292C119.254 38.0292 118.365 38.5069 117.654 39.4028C116.943 40.2986 116.528 41.6722 116.528 43.5833V52.9H112.204V34.3861H116.528V37.3125H116.588C117.002 36.2972 117.595 35.5208 118.365 34.9236C119.194 34.3861 120.142 34.0875 121.268 34.0875ZM123.163 43.9417C123.163 40.8958 124.052 38.4472 125.711 36.6556C127.429 34.8639 129.799 33.9681 132.82 33.9681C135.663 33.9681 137.915 34.8042 139.514 36.5361C141.114 38.2681 141.943 40.5972 141.943 43.5236C141.943 46.5097 141.054 48.8986 139.396 50.6903C137.678 52.4819 135.367 53.3778 132.405 53.3778C129.562 53.3778 127.31 52.5417 125.652 50.8694C123.993 49.1375 123.163 46.8083 123.163 43.9417ZM127.666 43.7625C127.666 45.6736 128.081 47.1667 128.969 48.1819C129.858 49.1972 131.102 49.7347 132.701 49.7347C134.242 49.7347 135.486 49.2569 136.315 48.1819C137.145 47.1667 137.559 45.6736 137.559 43.6431C137.559 41.6722 137.145 40.1792 136.315 39.1042C135.486 38.0889 134.242 37.5514 132.761 37.5514C131.161 37.5514 129.976 38.0889 129.088 39.1639C128.081 40.2986 127.666 41.7917 127.666 43.7625ZM148.4 39.2833C148.4 39.8806 148.578 40.4181 148.993 40.7764C149.408 41.1347 150.237 41.5528 151.6 42.0903C153.318 42.8069 154.562 43.5833 155.213 44.4194C155.924 45.3153 156.28 46.3306 156.28 47.5847C156.28 49.3167 155.628 50.6903 154.265 51.7653C152.962 52.8403 151.126 53.3181 148.874 53.3181C148.104 53.3181 147.275 53.1986 146.327 53.0194C145.379 52.8403 144.609 52.6014 143.957 52.3028V48.0028C144.727 48.5403 145.616 49.0181 146.505 49.3167C147.393 49.6153 148.223 49.7944 148.993 49.7944C149.941 49.7944 150.711 49.675 151.126 49.3764C151.6 49.0778 151.836 48.6597 151.836 48.0028C151.836 47.4056 151.6 46.9278 151.126 46.45C150.652 46.0319 149.704 45.5542 148.4 45.0167C146.801 44.3597 145.675 43.5833 145.024 42.7472C144.372 41.9111 144.017 40.8361 144.017 39.5222C144.017 37.85 144.668 36.4764 145.972 35.4014C147.275 34.3264 148.993 33.7889 151.066 33.7889C151.718 33.7889 152.429 33.8486 153.199 34.0278C153.969 34.2069 154.68 34.3861 155.213 34.5653V38.8056C154.621 38.4472 153.969 38.0889 153.199 37.7903C152.429 37.4917 151.659 37.3722 150.948 37.3722C150.118 37.3722 149.467 37.5514 149.052 37.85C148.637 38.2681 148.4 38.6861 148.4 39.2833ZM158.116 43.9417C158.116 40.8958 159.005 38.4472 160.663 36.6556C162.382 34.8639 164.751 33.9681 167.773 33.9681C170.616 33.9681 172.867 34.8042 174.467 36.5361C176.066 38.2681 176.896 40.5972 176.896 43.5236C176.896 46.5097 176.007 48.8986 174.348 50.6903C172.63 52.4819 170.32 53.3778 167.358 53.3778C164.514 53.3778 162.263 52.5417 160.604 50.8694C159.005 49.1375 158.116 46.8083 158.116 43.9417ZM162.618 43.7625C162.618 45.6736 163.033 47.1667 163.922 48.1819C164.81 49.1972 166.054 49.7347 167.654 49.7347C169.194 49.7347 170.438 49.2569 171.268 48.1819C172.097 47.1667 172.512 45.6736 172.512 43.6431C172.512 41.6722 172.097 40.1792 171.268 39.1042C170.438 38.0889 169.194 37.5514 167.713 37.5514C166.114 37.5514 164.929 38.0889 164.04 39.1639C163.092 40.2986 162.618 41.7917 162.618 43.7625ZM191.291 37.9694H184.834V52.9H180.45V37.9694H177.37V34.3861H180.45V31.8181C180.45 29.9069 181.102 28.2944 182.346 27.0403C183.59 25.7861 185.19 25.1889 187.145 25.1889C187.678 25.1889 188.152 25.2486 188.566 25.2486C188.981 25.2486 189.336 25.3681 189.633 25.4875V29.25C189.514 29.1903 189.218 29.0708 188.863 28.9514C188.507 28.8319 188.092 28.7722 187.618 28.7722C186.73 28.7722 186.019 29.0708 185.545 29.6083C185.071 30.1458 184.834 31.0417 184.834 32.1167V34.3264H191.291V30.1458L195.616 28.8319V34.3264H200V37.9097H195.616V46.5694C195.616 47.7042 195.853 48.4806 196.209 48.9583C196.623 49.4361 197.275 49.675 198.163 49.675C198.4 49.675 198.697 49.6153 199.052 49.4958C199.408 49.3764 199.704 49.2569 199.941 49.0778V52.6611C199.645 52.8403 199.23 52.9597 198.578 53.0792C197.927 53.1986 197.334 53.2583 196.682 53.2583C194.846 53.2583 193.483 52.7806 192.595 51.825C191.706 50.8694 191.232 49.3764 191.232 47.4056L191.291 37.9694Z" fill="#737373"/>
<path d="M20.2607 18.5H0V38.925H20.2607V18.5Z" fill="#F25022"/>
<path d="M42.654 18.5H22.3934V38.925H42.654V18.5Z" fill="#7FBA00"/>
<path d="M20.2607 41.075H0V61.5H20.2607V41.075Z" fill="#00A4EF"/>
<path d="M42.654 41.075H22.3934V61.5H42.654V41.075Z" fill="#FFB900"/>
</svg>
