<svg width="200" height="81" viewBox="0 0 200 81" fill="none" xmlns="http://www.w3.org/2000/svg">
<path fill-rule="evenodd" clip-rule="evenodd" d="M195.551 51.3828V50.844H195.902C196.094 50.844 196.355 50.8584 196.355 51.0888C196.355 51.3384 196.221 51.3828 195.994 51.3828H195.551ZM195.551 51.7608H195.785L196.33 52.7016H196.928L196.326 51.7224C196.637 51.6996 196.893 51.5544 196.893 51.1416C196.893 50.6292 196.533 50.4636 195.926 50.4636H195.046V52.7016H195.551V51.7608ZM198.11 51.5856C198.11 50.2716 197.072 49.5096 195.915 49.5096C194.75 49.5096 193.713 50.2716 193.713 51.5856C193.713 52.8996 194.75 53.6652 195.915 53.6652C197.071 53.6652 198.11 52.8996 198.11 51.5856ZM197.476 51.5856C197.476 52.5432 196.76 53.1864 195.915 53.1864V53.1792C195.045 53.1864 194.343 52.5432 194.343 51.5856C194.343 50.6292 195.046 49.9884 195.915 49.9884C196.761 49.9884 197.476 50.6292 197.476 51.5856Z" fill="black"/>
<path fill-rule="evenodd" clip-rule="evenodd" d="M117.529 29.3484L117.532 52.9404H124.302V29.3484H117.529ZM64.2646 29.3172V52.9404H71.0976V34.6032L76.4268 34.62C78.1793 34.62 79.3902 35.034 80.2354 35.9208C81.3073 37.044 81.7439 38.8536 81.7439 42.1668V52.9404H88.3622V39.888C88.3622 30.5724 82.328 29.316 76.4244 29.316H64.2659L64.2646 29.3172ZM128.432 29.3496V52.9404H139.415C145.266 52.9404 147.176 51.9828 149.24 49.836C150.701 48.3288 151.644 45.0192 151.644 41.4036C151.644 38.088 150.845 35.13 149.452 33.288C146.944 29.994 143.33 29.3496 137.934 29.3496H128.432ZM135.149 34.4856H138.06C142.283 34.4856 145.015 36.3528 145.015 41.1948C145.015 46.0392 142.283 47.9052 138.06 47.9052H135.149V34.4856ZM107.767 29.3496L102.116 48.0456L96.7012 29.3508L89.3927 29.3496L97.1244 52.9404H106.884L114.678 29.3496H107.767ZM154.795 52.9404H161.567V29.3508L154.793 29.3496L154.795 52.9404ZM173.776 29.358L164.321 52.932H170.998L172.494 48.7656H183.683L185.099 52.932H192.348L182.821 29.3568L173.776 29.358ZM178.171 33.66L182.273 44.7048H173.94L178.171 33.66Z" fill="black"/>
<path fill-rule="evenodd" clip-rule="evenodd" d="M20.5963 33.282V30.036C20.9159 30.012 21.2402 29.9964 21.5695 29.9856C30.5939 29.7072 36.5146 37.6164 36.5146 37.6164C36.5146 37.6164 30.1195 46.3548 23.2634 46.3548C22.3573 46.3584 21.4561 46.2168 20.5963 45.9348V36.09C24.1085 36.5076 24.8159 38.034 26.928 41.4996L31.6256 37.602C31.6256 37.602 28.1963 33.1764 22.4159 33.1764C21.7878 33.1764 21.1866 33.2196 20.5963 33.282ZM20.5963 22.5564V27.408C20.9195 27.3828 21.2439 27.3624 21.5695 27.3504C34.1183 26.9352 42.2951 37.4784 42.2951 37.4784C42.2951 37.4784 32.9049 48.7152 23.1207 48.7152C22.2244 48.7152 21.3841 48.6336 20.5963 48.4956V51.4932C21.2707 51.5772 21.9695 51.6276 22.6988 51.6276C31.8024 51.6276 38.3866 47.0532 44.7622 41.6376C45.8195 42.4704 50.1476 44.4972 51.0366 45.3852C44.9744 50.3772 30.8476 54.4032 22.8378 54.4032C22.089 54.4008 21.3415 54.3624 20.5963 54.288V58.5H55.2V22.5564H20.5963ZM20.5963 45.9348V48.4956C12.1756 47.0196 9.83781 38.4048 9.83781 38.4048C9.83781 38.4048 13.8817 33.996 20.5963 33.282V36.09L20.5829 36.0888C17.0585 35.6724 14.3061 38.9124 14.3061 38.9124C14.3061 38.9124 15.8488 44.3652 20.5963 45.9348ZM5.64024 38.0316C5.64024 38.0316 10.6305 30.7836 20.5963 30.036V27.4056C9.55854 28.278 0 37.476 0 37.476C0 37.476 5.41341 52.8756 20.5963 54.2856V51.4932C9.45488 50.1144 5.64024 38.0316 5.64024 38.0316Z" fill="#76B900"/>
</svg>
