<svg width="200" height="81" viewBox="0 0 200 81" fill="none" xmlns="http://www.w3.org/2000/svg">
<path d="M62.278 38.9412C62.278 47.9337 67.9729 54.2037 75.8644 54.2037C83.7559 54.2037 89.4509 47.9337 89.4509 38.9412C89.4509 29.9487 83.7559 23.6787 75.8644 23.6787C67.9729 23.6787 62.278 29.9487 62.278 38.9412ZM84.2441 38.9412C84.2441 45.3762 80.7864 49.5425 75.8644 49.5425C70.9424 49.5425 67.4847 45.3762 67.4847 38.9412C67.4847 32.5062 70.9424 28.34 75.8644 28.34C80.7864 28.34 84.2441 32.5062 84.2441 38.9412Z" fill="black"/>
<path d="M104.114 54.2037C110.093 54.2037 113.51 49.0887 113.51 42.9425C113.51 36.7962 110.093 31.6812 104.114 31.6812C101.347 31.6812 99.3136 32.795 97.9712 34.4037V32.0937H93.0898V61.175H97.9712V51.4812C99.3136 53.09 101.347 54.2037 104.114 54.2037ZM97.8492 42.3237C97.8492 38.24 100.127 36.0125 103.137 36.0125C106.676 36.0125 108.588 38.8175 108.588 42.9425C108.588 47.0675 106.676 49.8725 103.137 49.8725C100.127 49.8725 97.8492 47.6037 97.8492 43.6025V42.3237Z" fill="black"/>
<path d="M126.72 54.2037C130.992 54.2037 134.368 51.935 135.873 48.14L131.683 46.5312C131.032 48.7587 129.12 49.9962 126.72 49.9962C123.588 49.9962 121.392 47.7275 121.025 44.015H135.995V42.365C135.995 36.425 132.7 31.6812 126.517 31.6812C120.334 31.6812 116.347 36.59 116.347 42.9425C116.347 49.625 120.619 54.2037 126.72 54.2037ZM126.476 35.8475C129.568 35.8475 131.032 37.91 131.073 40.3025H121.269C122.002 37.3737 123.954 35.8475 126.476 35.8475Z" fill="black"/>
<path d="M139.658 53.75H144.539V41.045C144.539 37.9512 146.776 36.3012 148.973 36.3012C151.658 36.3012 152.715 38.24 152.715 40.9212V53.75H157.597V39.4775C157.597 34.8162 154.912 31.6812 150.437 31.6812C147.671 31.6812 145.759 32.96 144.539 34.4037V32.0937H139.658V53.75Z" fill="black"/>
<path d="M171.893 24.1325L160.829 53.75H165.995L168.476 46.985H181.086L183.608 53.75H188.856L177.792 24.1325H171.893ZM174.741 29.99L179.378 42.365H170.185L174.741 29.99Z" fill="black"/>
<path d="M197.236 24.2184H192.029V53.8359H197.236V24.2184Z" fill="black"/>
<path d="M50.3492 35.0105C51.5797 31.2653 51.1559 27.1627 49.1881 23.7561C46.2288 18.5311 40.2797 15.843 34.4695 17.108C31.8848 14.1552 28.1712 12.4759 24.278 12.5C18.339 12.4863 13.0695 16.3638 11.2424 22.0941C7.42713 22.8864 4.13391 25.3081 2.20679 28.7405C-0.774567 33.9517 -0.0949056 40.5208 3.88815 44.9895C2.65764 48.7347 3.08137 52.8374 5.04916 56.2439C8.00848 61.4689 13.9576 64.157 19.7678 62.892C22.3509 65.8449 26.0661 67.5241 29.9593 67.4983C35.9017 67.5138 41.1729 63.6328 43 57.8974C46.8153 57.105 50.1085 54.6833 52.0356 51.2509C55.0136 46.0397 54.3322 39.4758 50.3509 35.007L50.3492 35.0105ZM29.9627 63.9044C27.5848 63.9078 25.2814 63.0639 23.4559 61.5188C23.539 61.4741 23.6831 61.3933 23.7763 61.3349L34.5763 55.0099C35.1288 54.6919 35.4678 54.0955 35.4644 53.4509V38.0114L40.0288 40.6841C40.078 40.7081 40.1102 40.7563 40.117 40.8113V53.597C40.1102 59.2827 35.5695 63.8924 29.9627 63.9044ZM8.12543 54.4461C6.93391 52.3595 6.50509 49.9138 6.91357 47.5402C6.99323 47.5883 7.13391 47.6759 7.23391 47.7344L18.0339 54.0594C18.5814 54.3842 19.2593 54.3842 19.8085 54.0594L32.9932 46.3388V51.6841C32.9966 51.7391 32.9712 51.7924 32.9288 51.8267L22.0119 58.2188C17.1492 61.0581 10.939 59.3703 8.12713 54.4461H8.12543ZM5.28306 30.54C6.4695 28.45 8.34238 26.8516 10.5729 26.0214C10.5729 26.1159 10.5678 26.2827 10.5678 26.3995V39.0513C10.5644 39.6941 10.9034 40.2905 11.4542 40.6084L24.639 48.3274L20.0746 51C20.0288 51.0309 19.9712 51.0361 19.9203 51.0138L9.0017 44.6166C4.14916 41.7669 2.48476 35.4711 5.28137 30.5417L5.28306 30.54ZM42.7848 39.3899L29.6 31.6692L34.1644 28.9983C34.2102 28.9674 34.2678 28.9622 34.3187 28.9845L45.2373 35.3766C50.0983 38.2245 51.7644 44.5306 48.9559 49.46C47.7678 51.5466 45.8966 53.145 43.6678 53.9769V40.947C43.6729 40.3042 43.3356 39.7095 42.7865 39.3899H42.7848ZM47.3271 32.4564C47.2475 32.4066 47.1068 32.3206 47.0068 32.2622L36.2068 25.9372C35.6593 25.6124 34.9814 25.6124 34.4322 25.9372L21.2475 33.6578V28.3125C21.2441 28.2575 21.2695 28.2042 21.3119 28.1699L32.2288 21.783C37.0915 18.9384 43.3085 20.6314 46.1119 25.5642C47.2966 27.6474 47.7254 30.0863 47.3237 32.4564H47.3271ZM18.7661 41.9834L14.2 39.3108C14.1509 39.2867 14.1187 39.2386 14.1119 39.1836V26.3978C14.1153 20.7053 18.6695 16.0922 24.2831 16.0956C26.6576 16.0956 28.9559 16.9413 30.7814 18.4813C30.6983 18.5259 30.5559 18.6067 30.461 18.6652L19.661 24.9902C19.1085 25.3081 18.7695 25.9028 18.7729 26.5474L18.7661 41.98V41.9834ZM21.2458 36.5625L27.1187 33.1233L32.9915 36.5608V43.4375L27.1187 46.875L21.2458 43.4375V36.5625Z" fill="black"/>
</svg>
