<svg width="200" height="81" viewBox="0 0 200 81" fill="none" xmlns="http://www.w3.org/2000/svg">
<g clip-path="url(#clip0_0_44)">
<path d="M199.876 23.2138C202.6 38.7317 160.096 59.0539 104.929 68.6036C49.7686 78.1532 2.84331 73.3074 0.123198 57.783C-2.59472 42.2629 39.9208 21.9472 95.0811 12.3997C150.244 2.84568 197.16 7.69148 199.876 23.2138Z" fill="#034EA2"/>
<path d="M147.959 46.2504L147.675 30.1145H152.795V50.452H145.434L140.326 33.7614H140.216L140.499 50.452H135.413V30.1145H143.092L147.844 46.2504H147.959Z" fill="white"/>
<path d="M54.9013 32.0188L52.0691 50.666H46.4861L50.3202 30.1145H59.5176L63.3341 50.666H57.773L55.0178 32.0188H54.9013Z" fill="white"/>
<path d="M76.337 50.666L72.8786 32.1891H72.7666L72.637 50.666H67.4582L67.9152 30.1145H76.3524L78.9055 45.8246H79.0154L81.5707 30.1145H90.0035L90.4517 50.666H85.2839L85.1477 32.1891H85.0401L81.5839 50.666H76.337Z" fill="white"/>
<path d="M37.7786 44.8681C37.9808 45.366 37.9193 46.0059 37.8248 46.3924C37.6512 47.0759 37.1854 47.7725 35.81 47.7725C34.5136 47.7725 33.727 47.0344 33.727 45.9054V43.916H28.1813L28.1769 45.508C28.1769 50.0895 31.8067 51.4719 35.6957 51.4719C39.4353 51.4719 42.5158 50.2009 43.0057 46.7767C43.2562 45.0013 43.0695 43.8396 42.9838 43.4006C42.1115 39.0986 34.2631 37.8145 33.6787 35.408C33.5798 34.9953 33.6084 34.5585 33.6567 34.3248C33.7995 33.6697 34.2522 32.9469 35.5463 32.9469C36.7548 32.9469 37.4688 33.6894 37.4688 34.8118C37.4688 35.1896 37.4688 36.0806 37.4688 36.0806H42.6256V34.6371C42.6256 30.1604 38.5828 29.4616 35.654 29.4616C31.9759 29.4616 28.9701 30.6692 28.4208 34.0147C28.2714 34.9385 28.2495 35.7618 28.467 36.7925C29.37 40.9919 36.7152 42.2083 37.7786 44.8681Z" fill="white"/>
<path d="M105.017 44.831C105.221 45.3245 105.155 45.9469 105.063 46.3334C104.894 47.0148 104.432 47.7005 103.066 47.7005C101.787 47.7005 101.007 46.9624 101.007 45.8595L101.003 43.8876H95.5141L95.5074 45.4577C95.5074 49.9934 99.1042 51.3627 102.954 51.3627C106.654 51.3627 109.706 50.1092 110.187 46.7156C110.437 44.9533 110.259 43.8068 110.169 43.3766C109.301 39.1139 101.532 37.8429 100.954 35.4604C100.855 35.0498 100.884 34.6175 100.934 34.3969C101.082 33.7374 101.526 33.032 102.806 33.032C104.004 33.032 104.703 33.7571 104.703 34.8708C104.703 35.2442 104.703 36.1265 104.703 36.1265H109.82V34.6983C109.82 30.2696 105.81 29.5751 102.91 29.5751C99.2734 29.5751 96.2918 30.7675 95.7535 34.089C95.6041 34.9996 95.5887 35.8076 95.8019 36.834C96.6917 40.9897 103.964 42.1974 105.017 44.831Z" fill="white"/>
<path d="M122.386 47.5913C123.82 47.5913 124.269 46.6042 124.367 46.0998C124.409 45.877 124.42 45.58 124.416 45.3136V30.1058H129.645V44.8485C129.656 45.2262 129.619 46.0037 129.601 46.198C129.234 50.0349 126.182 51.2797 122.383 51.2797C118.58 51.2797 115.526 50.0349 115.163 46.198C115.146 46.0037 115.109 45.2262 115.12 44.8485V30.1058H120.344V45.3136C120.344 45.58 120.353 45.8792 120.393 46.0998C120.505 46.6042 120.94 47.5913 122.386 47.5913Z" fill="white"/>
<path d="M165.521 47.3751C167.019 47.3751 167.542 46.4339 167.639 45.8858C167.676 45.6499 167.687 45.3638 167.685 45.104V42.1209H165.562V39.1204H172.894V44.6366C172.89 45.021 172.881 45.3049 172.82 45.9906C172.475 49.7292 169.212 51.0635 165.547 51.0635C161.876 51.0635 158.617 49.7292 158.268 45.9906C158.208 45.3049 158.2 45.021 158.193 44.6366L158.198 35.9823C158.198 35.6176 158.244 34.9712 158.283 34.6284C158.742 30.7871 161.876 29.5511 165.547 29.5511C169.214 29.5511 172.424 30.7806 172.804 34.6284C172.873 35.2835 172.851 35.9823 172.851 35.9823V36.668H167.637V35.5172C167.641 35.5194 167.63 35.028 167.569 34.7354C167.481 34.2812 167.083 33.2373 165.508 33.2373C164 33.2373 163.559 34.2244 163.449 34.7354C163.385 35.0062 163.361 35.3731 163.361 35.705V45.104C163.357 45.3638 163.372 45.6499 163.414 45.8858C163.504 46.4361 164.024 47.3751 165.521 47.3751Z" fill="white"/>
</g>
<defs>
<clipPath id="clip0_0_44">
<rect width="200" height="80" fill="white" transform="translate(0 0.5)"/>
</clipPath>
</defs>
</svg>
